<svg width="16" height="16" viewBox="0 0 16 16" version="1.1" xmlns="http://www.w3.org/2000/svg" class="icon"><path fill="none" id="canvas_background" d="M-1-1h18v18H-1z"/><g><path stroke="null" id="svg_1" fill="#000" d="M14.123 6.925c-.238.593-.99.41-1.375-.115.46 0 .924.015 1.375.115zm-4.895 3.326c.707 0 1.374-.295 1.89-.772.995-.919 2.56-2.166 4.02-1.857-.154-1.018-1.328-1.094-2.316-1.094h-1.684a2.148 2.148 0 0 1-1.91 3.131H5.121a.193.193 0 1 1 0-.386h4.107a1.762 1.762 0 1 0 0-3.524H.65a.193.193 0 1 1 0-.386h8.578c.666 0 1.262.303 1.656.78h1.938c1.297 0 2.926.205 2.7 2.024-1.22-.64-2.703.313-4.142 1.595a3.12 3.12 0 0 1-2.152.875h-1.08a.193.193 0 1 1 0-.386h1.08zm.193-1.955H5.913a.193.193 0 1 0 0 .386H9.42a.193.193 0 1 0 0-.386zm0-1.955H3.677a.193.193 0 1 0 0 .385h5.744a.193.193 0 1 0 0-.385zm.688.977H2.885a.193.193 0 1 0 0 .386h7.224a.193.193 0 1 0 0-.386z"/></g></svg>